<?xml version="1.0" encoding="UTF-8"?>
<svg viewBox="0 0 962 768" xmlns="http://www.w3.org/2000/svg">
 <path d="m496.43 764.61c-5.5207-2.2698-8.0946-9.7185-13.515-11.029-15.373-0.88905-31.267 0.0108-45.613-6.637-11.505-3.671-23.452-8.6104-30.008-19.44-7.4595-5.232-8.1047-25.035-18.67-20.161-13.782 7.1022-29.739 11.863-45.141 7.3926-20.557-5.012-40.458-13.091-58.884-23.466-18.643-11.725-35.305-26.383-54.131-37.8-12.108-2.1137-8.2649 16.258-12.045 23.609-3.658 10.876-13.081 18.728-15.371 30.272-6.23 6.93-16.797 10.192-26.073 9.3205-10.265-2.7442-17.805 8.7192-27.736 10.891-14.392 7.3013-31.171 7.4741-46.772 5.0708-11.83-3.762-20.322-13.499-31.664-18.222-12.098-11.594-18.197-27.491-25.101-42.396-4.556 4.1818-10.3 11.046-16.897 6.3385-8.3691-5.1365-0.3346-16.944-8.6514-21.763-4.8659-7.6317-11.47-14.124-15.535-22.777-6.558-6.7747-3.3839-16.854-4.1264-25.357 0.24837-4.8734-0.48611-10.05 0.34695-14.743 7.0105-11.346 16.5-20.784 25.153-30.808 5.5323-9.6361 9.7793-19.919 14.305-29.976 6.3937-10.533 10.678-25.035 23.58-29.281 15.124-2.828 26.433 12.461 30.054 25.388 1.9901 5.8311 5.5003 10.916 8.9166 15.977 6.8631-26.441 15.066-52.642 27.121-77.228 4.5474-11.106 6.8432-23.21 14.194-33.05 8.1196-13.905 20.928-23.721 32.961-33.975 22.817-20.988 53.531-28.886 81.898-39.364 11.491-3.7003 22.836-8.2476 34.746-10.39 5.2066 0.11747 8.9468 6.3823 13.946 2.2786 40.045-15.478 80.387-30.404 119.2-48.798 19.132-10.782 36.575-24.536 56.295-34.229 9.0061-5.8557 26.905-2.0355 26.67-16.661 2.9616-9.7398-0.79027-19.467-7.5771-25.844-7.3995-15.278-15.186-30.796-16.907-47.965-3.0329-26.491-0.18099-53.882 8.4565-79.111 4.8008-9.7969 1.1151-21.399 8.4919-30.052 7.6891-14.376 18.062-29.112 33.546-35.686 19.482-5.9261 33.966-22.579 54.21-26.804 22.23-8.2801 46.361-8.0055 69.73-7.4315 11.653 3.1919 24.435 2.3009 35.369 7.7701 12.239 5.6713 24.346 12.2 37.634 15.033 8.8954 3.1775 20.235 5.8295 27.794 13.214 11.033 9.1855 23.436 16.897 33.783 26.784 10.947 11.022 17.931 25.01 26.542 37.809 6.2533 8.8366 10.917 18.55 12.409 29.182 1.1715 13.15 0.0287 26.352-4.016 38.949-2.2284 10.886-7.1628 21.483-7.0704 32.669 3.9138 6.17-10.775 15.277 1.1185 18.991 5.8221 6.8767-12.938 4.5003-8.9619 14.216-6.9831 10.135 3.0614 18.991 8.2773 27.048 8.7585 10.167-0.70014 18.519-10.086 22.015-5.1134 9.1531-7.8097 22.008-21.388 22.791-9.8665 2.2948-25.196 3.9755-18.763 18.088 5.0488 5.3847 10.503 19.246-0.55436 20.616-6.7307-1.2828-15.533-1.1134-17.654 7.1549-6.5925 11.004 3.9656 19.727 8.6529 28.797 9.7492 16.946 10.531 37.193 19.708 54.345 13.889 27.146 26.123 55.526 44.563 79.998 9.6843 11.526 23.352 19.716 29.681 33.948 11.35 21.825 18.032 45.55 25.456 68.872 6.9909 17.672 12.48 36.71 24.784 51.574 7.6118 9.5453 21.043 8.391 31.527 12.628 10.214 3.6555 30.503 21.062 21.979 25.74-3.8801 2.1294-7.0901-2.4933-9.3858-0.36051-4.9857 4.632 2.7041 3.82-1.438 7.2283-4.471 3.6789-23.163 0.23334-34.976 2.0722-15.335-0.33551-29.53-7.3659-44.911-7.6659-7.6426-0.81127-15.264-1.8006-22.885-2.7931-5.938 7.311-11.577 16.519-22.02 17.152-6.5689 3.7881-19.288-3.1164-9.6813-9.0905 9.1679-9.7665-3.2351-19.462-2.3249-29.932-1.4482-4.7705 5.8026-10.675 0.74497-13.875-15.008-13.012-25.721-29.985-39.75-43.96-11.406-11.804-19.108-26.385-25.713-41.238-5.217-8.0721-15.445-11.563-20.25-20.207-16.552-27.006-16.271-60.67-32.22-88.014-3.59-5.8971-6.5971-18.598-14.124-8.9166-24.335 16.355-41.19 42.139-67.836 55.265-15.23 7.9276-31.229 14.889-43.988 26.705-17.639 13.887-33.907 29.858-53.531 40.979-13.311 7.7708-28.09 12.243-42.69 16.79 1.1596 16.797 4.8321 33.325 7.3795 49.96l17.199 34.467c24.8-0.44106 49.451 3.8483 73.646 8.8609 10.089 3.5818 21.832 9.3593 25.759 19.903 3.9417 8.4588 11.353 23.268-3.249 24.346-8.0908 12.015-18.778-4.0325-25.65-9.2802-8.8141-1.0123 6.7233 15.967-5.5512 17.697-11.51 2.6205-17.814-10.99-28.426-9.9304-8.3037 0.76864-16.251 3.3909-24.252 5.5838-0.21926 5.9104 3.1961 15.627-4.8183 17.237-3.3829 0.21943-6.5138-1.5179-9.2487-3.3114z"/>
</svg>
